<?xml version="1.0" encoding="utf-8"?>
<!-- Generator: Adobe Illustrator 18.1.1, SVG Export Plug-In . SVG Version: 6.00 Build 0)  -->
<svg version="1.1" id="Capa_1" xmlns="http://www.w3.org/2000/svg" xmlns:xlink="http://www.w3.org/1999/xlink" x="0px" y="0px"
	 viewBox="50 173.3 495.3 495.3" enable-background="new 50 173.3 495.3 495.3" xml:space="preserve">
<g>
	<g>
		<path d="M525.5,325.4c-12.6-29.4-30.7-55.9-53.5-78.7c-22.9-22.9-49.4-40.9-78.7-53.5c-30.5-13.1-62.7-19.8-95.6-19.8
			c-44.7,0-91.3,15.3-134.8,44.2c-5.3,3.6-6.8,10.8-3.2,16.1c3.6,5.3,10.8,6.8,16.1,3.2c39.6-26.3,81.8-40.3,121.9-40.3
			c121.6,0,224.4,102.8,224.4,224.4S419.3,645.3,297.6,645.3S73.2,542.6,73.2,420.9c0-40.1,13.9-82.3,40.3-121.9
			c3.6-5.3,2.1-12.6-3.3-16.1c-5.4-3.6-12.6-2.1-16.1,3.3C65.3,329.6,50,376.2,50,420.9c0,32.9,6.7,65,19.8,95.6
			c12.6,29.4,30.7,55.9,53.5,78.7c22.9,22.9,49.4,40.9,78.7,53.5c30.5,13.1,62.7,19.8,95.6,19.8s65-6.7,95.6-19.8
			c29.4-12.6,55.9-30.7,78.7-53.5c22.9-22.9,40.9-49.4,53.5-78.7c13.1-30.5,19.8-62.7,19.8-95.6S538.6,355.9,525.5,325.4z"/>
	</g>
</g>
<g>
	<g>
		<path d="M133.7,245.4c-6.4,0-11.6,5.2-11.6,11.6c0,6.4,5.2,11.6,11.6,11.6s11.6-5.2,11.6-11.6
			C145.3,250.6,140.1,245.4,133.7,245.4z"/>
	</g>
</g>
<g>
	<g>
		<path d="M435.2,329.9c-8.8-8.8-20.5-13.6-32.9-13.6s-24.1,4.8-32.9,13.6L262.8,436.6l-36.9-36.9c-8.8-8.8-20.5-13.6-32.9-13.6
			s-24.1,4.8-32.9,13.6c-8.8,8.8-13.6,20.5-13.6,32.9s4.8,24.1,13.6,32.9l69.8,69.8c8.8,8.8,20.5,13.6,32.9,13.6
			c12.4,0,24.1-4.8,32.9-13.6l139.5-139.5c8.8-8.8,13.6-20.5,13.6-32.9C448.8,350.4,443.9,338.7,435.2,329.9z M418.7,379.3
			L279.2,518.8c-4.4,4.4-10.2,6.8-16.4,6.8c-6.2,0-12-2.4-16.4-6.8L176.6,449c-4.4-4.4-6.8-10.2-6.8-16.4c0-6.2,2.4-12,6.8-16.4
			c4.4-4.4,10.2-6.8,16.4-6.8s12,2.4,16.4,6.8l53.3,53.3l123.1-123.1c4.4-4.4,10.2-6.8,16.4-6.8s12,2.4,16.4,6.8
			c4.4,4.4,6.8,10.2,6.8,16.4S423.1,374.9,418.7,379.3z"/>
	</g>
</g>
</svg>
