<svg version="1.1" id="Слой_1" xmlns="http://www.w3.org/2000/svg" xmlns:xlink="http://www.w3.org/1999/xlink" x="0px" y="0px"
	 viewBox="-261.7 403.4 26.3 35" enable-background="new -261.7 403.4 26.3 35" xml:space="preserve">
<path d="M-235.6,410.9l-7.3-7.3c-0.1-0.1-0.3-0.2-0.5-0.2h-15.3c-1.6,0-2.9,1.3-2.9,2.9v29.2c0,1.6,1.3,2.9,2.9,2.9h20.4
	c1.6,0,2.9-1.3,2.9-2.9v-24.1C-235.4,411.2-235.5,411-235.6,410.9z M-242.7,405.9l4.8,4.8h-3.3c-0.8,0-1.5-0.7-1.5-1.5V405.9z
	 M-236.9,435.5c0,0.8-0.7,1.5-1.5,1.5h-20.4c-0.8,0-1.5-0.7-1.5-1.5v-29.2c0-0.8,0.7-1.5,1.5-1.5h14.6v4.4c0,1.6,1.3,2.9,2.9,2.9
	h4.4V435.5z"/>
<path d="M-244.8,424.8c-0.7-0.5-1.3-1.1-1.7-1.5c-0.6-0.6-1.1-1.1-1.5-1.6c0.7-2.1,1-3.1,1-3.7c0-2.4-0.9-2.9-2.2-2.9
	c-1,0-2.2,0.5-2.2,3c0,1.1,0.6,2.4,1.8,3.9c-0.3,0.9-0.6,1.9-1,3c-0.2,0.6-0.4,1.1-0.6,1.5c-0.2,0.1-0.3,0.2-0.5,0.2
	c-0.6,0.3-1.1,0.6-1.6,0.8c-2.3,1.1-3.9,1.8-3.9,3.3c0,1,1.1,1.7,2.2,1.7c1.4,0,3.4-1.8,4.9-4.9c1.6-0.6,3.5-1.1,5-1.4
	c1.2,0.9,2.6,1.8,3.2,1.8c1.8,0,2.2-1,2.2-1.9c0-1.7-2-1.7-2.9-1.7C-243,424.5-243.8,424.6-244.8,424.8z M-255.1,431.1
	c-0.4,0-0.7-0.2-0.7-0.2c0-0.5,1.5-1.2,3-2c0.1,0,0.2-0.1,0.3-0.1C-253.6,430.4-254.7,431.1-255.1,431.1z M-250,418
	c0-1.5,0.5-1.5,0.7-1.5c0.5,0,0.7,0,0.7,1.5c0,0.3-0.2,1.1-0.6,2.3C-249.7,419.4-250,418.6-250,418z M-249.4,425.9
	c0-0.1,0.1-0.3,0.1-0.4c0.3-0.8,0.5-1.5,0.7-2.2c0.3,0.3,0.6,0.7,1,1c0.1,0.1,0.5,0.4,0.9,0.8C-247.6,425.3-248.5,425.6-249.4,425.9
	z M-241.2,426.3c0,0.3,0,0.5-0.7,0.5c-0.2,0-0.7-0.3-1.2-0.7c0.2,0,0.4,0,0.4,0C-241.6,426-241.3,426.1-241.2,426.3z"/>
</svg>
