<svg xmlns="http://www.w3.org/2000/svg" xmlns:xlink="http://www.w3.org/1999/xlink"><symbol id="award-line" viewBox="0 0 24 24"><path fill="none" d="M0 0h24v24H0z"/><path d="M17 15.245v6.872a.5.5 0 0 1-.757.429L12 20l-4.243 2.546a.5.5 0 0 1-.757-.43v-6.87a8 8 0 1 1 10 0zm-8 1.173v3.05l3-1.8 3 1.8v-3.05A7.978 7.978 0 0 1 12 17a7.978 7.978 0 0 1-3-.582zM12 15a6 6 0 1 0 0-12 6 6 0 0 0 0 12z"/></symbol><symbol id="check" viewBox="50 173.3 495.3 495.3">
<g>
	<g>
		<path d="M525.5,325.4c-12.6-29.4-30.7-55.9-53.5-78.7c-22.9-22.9-49.4-40.9-78.7-53.5c-30.5-13.1-62.7-19.8-95.6-19.8
			c-44.7,0-91.3,15.3-134.8,44.2c-5.3,3.6-6.8,10.8-3.2,16.1c3.6,5.3,10.8,6.8,16.1,3.2c39.6-26.3,81.8-40.3,121.9-40.3
			c121.6,0,224.4,102.8,224.4,224.4S419.3,645.3,297.6,645.3S73.2,542.6,73.2,420.9c0-40.1,13.9-82.3,40.3-121.9
			c3.6-5.3,2.1-12.6-3.3-16.1c-5.4-3.6-12.6-2.1-16.1,3.3C65.3,329.6,50,376.2,50,420.9c0,32.9,6.7,65,19.8,95.6
			c12.6,29.4,30.7,55.9,53.5,78.7c22.9,22.9,49.4,40.9,78.7,53.5c30.5,13.1,62.7,19.8,95.6,19.8s65-6.7,95.6-19.8
			c29.4-12.6,55.9-30.7,78.7-53.5c22.9-22.9,40.9-49.4,53.5-78.7c13.1-30.5,19.8-62.7,19.8-95.6S538.6,355.9,525.5,325.4z"/>
	</g>
</g>
<g>
	<g>
		<path d="M133.7,245.4c-6.4,0-11.6,5.2-11.6,11.6c0,6.4,5.2,11.6,11.6,11.6s11.6-5.2,11.6-11.6
			C145.3,250.6,140.1,245.4,133.7,245.4z"/>
	</g>
</g>
<g>
	<g>
		<path d="M435.2,329.9c-8.8-8.8-20.5-13.6-32.9-13.6s-24.1,4.8-32.9,13.6L262.8,436.6l-36.9-36.9c-8.8-8.8-20.5-13.6-32.9-13.6
			s-24.1,4.8-32.9,13.6c-8.8,8.8-13.6,20.5-13.6,32.9s4.8,24.1,13.6,32.9l69.8,69.8c8.8,8.8,20.5,13.6,32.9,13.6
			c12.4,0,24.1-4.8,32.9-13.6l139.5-139.5c8.8-8.8,13.6-20.5,13.6-32.9C448.8,350.4,443.9,338.7,435.2,329.9z M418.7,379.3
			L279.2,518.8c-4.4,4.4-10.2,6.8-16.4,6.8c-6.2,0-12-2.4-16.4-6.8L176.6,449c-4.4-4.4-6.8-10.2-6.8-16.4c0-6.2,2.4-12,6.8-16.4
			c4.4-4.4,10.2-6.8,16.4-6.8s12,2.4,16.4,6.8l53.3,53.3l123.1-123.1c4.4-4.4,10.2-6.8,16.4-6.8s12,2.4,16.4,6.8
			c4.4,4.4,6.8,10.2,6.8,16.4S423.1,374.9,418.7,379.3z"/>
	</g>
</g>
</symbol><symbol id="customer-service-line" viewBox="0 0 24 24"><path fill="none" d="M0 0h24v24H0z"/><path d="M22 17.002a6.002 6.002 0 0 1-4.713 5.86l-.638-1.914A4.003 4.003 0 0 0 19.465 19H17a2 2 0 0 1-2-2v-4a2 2 0 0 1 2-2h2.938a8.001 8.001 0 0 0-15.876 0H7a2 2 0 0 1 2 2v4a2 2 0 0 1-2 2H4a2 2 0 0 1-2-2v-5C2 6.477 6.477 2 12 2s10 4.477 10 10V17.002zM20 17v-4h-3v4h3zM4 13v4h3v-4H4z"/></symbol><symbol id="mail-fill" viewBox="0 0 24 24"><path fill="none" d="M0 0h24v24H0z"/><path d="M3 3h18a1 1 0 0 1 1 1v16a1 1 0 0 1-1 1H3a1 1 0 0 1-1-1V4a1 1 0 0 1 1-1zm9.06 8.683L5.648 6.238 4.353 7.762l7.72 6.555 7.581-6.56-1.308-1.513-6.285 5.439z"/></symbol><symbol id="map-pin-2-fill" viewBox="0 0 24 24"><path fill="none" d="M0 0h24v24H0z"/><path d="M18.364 17.364L12 23.728l-6.364-6.364a9 9 0 1 1 12.728 0zM12 13a2 2 0 1 0 0-4 2 2 0 0 0 0 4z"/></symbol><symbol id="pdf" viewBox="-261.7 403.4 26.3 35">
<path d="M-235.6,410.9l-7.3-7.3c-0.1-0.1-0.3-0.2-0.5-0.2h-15.3c-1.6,0-2.9,1.3-2.9,2.9v29.2c0,1.6,1.3,2.9,2.9,2.9h20.4
	c1.6,0,2.9-1.3,2.9-2.9v-24.1C-235.4,411.2-235.5,411-235.6,410.9z M-242.7,405.9l4.8,4.8h-3.3c-0.8,0-1.5-0.7-1.5-1.5V405.9z
	 M-236.9,435.5c0,0.8-0.7,1.5-1.5,1.5h-20.4c-0.8,0-1.5-0.7-1.5-1.5v-29.2c0-0.8,0.7-1.5,1.5-1.5h14.6v4.4c0,1.6,1.3,2.9,2.9,2.9
	h4.4V435.5z"/>
<path d="M-244.8,424.8c-0.7-0.5-1.3-1.1-1.7-1.5c-0.6-0.6-1.1-1.1-1.5-1.6c0.7-2.1,1-3.1,1-3.7c0-2.4-0.9-2.9-2.2-2.9
	c-1,0-2.2,0.5-2.2,3c0,1.1,0.6,2.4,1.8,3.9c-0.3,0.9-0.6,1.9-1,3c-0.2,0.6-0.4,1.1-0.6,1.5c-0.2,0.1-0.3,0.2-0.5,0.2
	c-0.6,0.3-1.1,0.6-1.6,0.8c-2.3,1.1-3.9,1.8-3.9,3.3c0,1,1.1,1.7,2.2,1.7c1.4,0,3.4-1.8,4.9-4.9c1.6-0.6,3.5-1.1,5-1.4
	c1.2,0.9,2.6,1.8,3.2,1.8c1.8,0,2.2-1,2.2-1.9c0-1.7-2-1.7-2.9-1.7C-243,424.5-243.8,424.6-244.8,424.8z M-255.1,431.1
	c-0.4,0-0.7-0.2-0.7-0.2c0-0.5,1.5-1.2,3-2c0.1,0,0.2-0.1,0.3-0.1C-253.6,430.4-254.7,431.1-255.1,431.1z M-250,418
	c0-1.5,0.5-1.5,0.7-1.5c0.5,0,0.7,0,0.7,1.5c0,0.3-0.2,1.1-0.6,2.3C-249.7,419.4-250,418.6-250,418z M-249.4,425.9
	c0-0.1,0.1-0.3,0.1-0.4c0.3-0.8,0.5-1.5,0.7-2.2c0.3,0.3,0.6,0.7,1,1c0.1,0.1,0.5,0.4,0.9,0.8C-247.6,425.3-248.5,425.6-249.4,425.9
	z M-241.2,426.3c0,0.3,0,0.5-0.7,0.5c-0.2,0-0.7-0.3-1.2-0.7c0.2,0,0.4,0,0.4,0C-241.6,426-241.3,426.1-241.2,426.3z"/>
</symbol><symbol id="phone-fill" viewBox="0 0 24 24"><path fill="none" d="M0 0h24v24H0z"/><path d="M21 16.42v3.536a1 1 0 0 1-.93.998c-.437.03-.794.046-1.07.046-8.837 0-16-7.163-16-16 0-.276.015-.633.046-1.07A1 1 0 0 1 4.044 3H7.58a.5.5 0 0 1 .498.45c.023.23.044.413.064.552A13.901 13.901 0 0 0 9.35 8.003c.095.2.033.439-.147.567l-2.158 1.542a13.047 13.047 0 0 0 6.844 6.844l1.54-2.154a.462.462 0 0 1 .573-.149 13.901 13.901 0 0 0 4 1.205c.139.02.322.042.55.064a.5.5 0 0 1 .449.498z"/></symbol><symbol id="shield-check-line" viewBox="0 0 24 24"><path fill="none" d="M0 0H24V24H0z"/><path d="M12 1l8.217 1.826c.457.102.783.507.783.976v9.987c0 2.006-1.003 3.88-2.672 4.992L12 23l-6.328-4.219C4.002 17.668 3 15.795 3 13.79V3.802c0-.469.326-.874.783-.976L12 1zm0 2.049L5 4.604v9.185c0 1.337.668 2.586 1.781 3.328L12 20.597l5.219-3.48C18.332 16.375 19 15.127 19 13.79V4.604L12 3.05zm4.452 5.173l1.415 1.414L11.503 16 7.26 11.757l1.414-1.414 2.828 2.828 4.95-4.95z"/></symbol><symbol id="shield-cross-line" viewBox="0 0 24 24"><path fill="none" d="M0 0h24v24H0z"/><path d="M3.783 2.826L12 1l8.217 1.826a1 1 0 0 1 .783.976v9.987a6 6 0 0 1-2.672 4.992L12 23l-6.328-4.219A6 6 0 0 1 3 13.79V3.802a1 1 0 0 1 .783-.976zM5 4.604v9.185a4 4 0 0 0 1.781 3.328L12 20.597l5.219-3.48A4 4 0 0 0 19 13.79V4.604L12 3.05 5 4.604zM11 10V7h2v3h3v2h-3v3h-2v-3H8v-2h3z"/></symbol><symbol id="time-fill" viewBox="0 0 24 24"><path fill="none" d="M0 0h24v24H0z"/><path d="M12 22C6.477 22 2 17.523 2 12S6.477 2 12 2s10 4.477 10 10-4.477 10-10 10zm1-10V7h-2v7h6v-2h-4z"/></symbol><symbol id="truck-line" viewBox="0 0 24 24"><path fill="none" d="M0 0h24v24H0z"/><path d="M8.965 18a3.5 3.5 0 0 1-6.93 0H1V6a1 1 0 0 1 1-1h14a1 1 0 0 1 1 1v2h3l3 4.056V18h-2.035a3.5 3.5 0 0 1-6.93 0h-5.07zM15 7H3v8.05a3.5 3.5 0 0 1 5.663.95h5.674c.168-.353.393-.674.663-.95V7zm2 6h4v-.285L18.992 10H17v3zm.5 6a1.5 1.5 0 1 0 0-3.001 1.5 1.5 0 0 0 0 3.001zM7 17.5a1.5 1.5 0 1 0-3 0 1.5 1.5 0 0 0 3 0z"/></symbol><symbol id="wallet-3-line" viewBox="0 0 24 24"><path fill="none" d="M0 0h24v24H0z"/><path d="M22 7h1v10h-1v3a1 1 0 0 1-1 1H3a1 1 0 0 1-1-1V4a1 1 0 0 1 1-1h18a1 1 0 0 1 1 1v3zm-2 10h-6a5 5 0 0 1 0-10h6V5H4v14h16v-2zm1-2V9h-7a3 3 0 0 0 0 6h7zm-7-4h3v2h-3v-2z"/></symbol></svg>